<svg xmlns="http://www.w3.org/2000/svg" viewBox="0 0 192 192">
  <defs>
    <linearGradient id="bg" x1="0%" y1="0%" x2="100%" y2="100%">
      <stop offset="0%" stop-color="#7c3aed"/>
      <stop offset="50%" stop-color="#ec4899"/>
      <stop offset="100%" stop-color="#f97316"/>
    </linearGradient>
  </defs>
  <rect width="192" height="192" rx="44" fill="url(#bg)"/>
  <g transform="translate(50, 48) scale(5.75)">
    <path d="M19.59 6.69a4.83 4.83 0 0 1-3.77-4.25V2h-3.45v13.67a2.89 2.89 0 0 1-2.88 2.5 2.89 2.89 0 0 1-2.89-2.89 2.89 2.89 0 0 1 2.89-2.89c.28 0 .54.04.79.1V9.01a6.33 6.33 0 0 0-.79-.05 6.34 6.34 0 0 0-6.34 6.34 6.34 6.34 0 0 0 6.34 6.34 6.34 6.34 0 0 0 6.34-6.34V8.73a8.26 8.26 0 0 0 4.83 1.54V6.82a4.85 4.85 0 0 1-1.07-.13z" fill="white"/>
  </g>
</svg>
